<svg width="321" height="321" viewBox="0 0 321 321" fill="none" xmlns="http://www.w3.org/2000/svg">
<mask id="path-1-inside-1_406_5948" fill="white">
<path d="M222.43 15.3143C222.976 14.0308 222.377 12.5464 221.085 12.0221C202.341 4.41657 182.317 0.42841 162.072 0.27726C141.828 0.12611 121.746 3.81484 102.891 11.1396C101.591 11.6446 100.97 13.1198 101.496 14.4114L158.588 154.626C159.435 156.706 162.372 156.728 163.249 154.661L222.43 15.3143Z"/>
</mask>
<path d="M222.43 15.3143C222.976 14.0308 222.377 12.5464 221.085 12.0221C202.341 4.41657 182.317 0.42841 162.072 0.27726C141.828 0.12611 121.746 3.81484 102.891 11.1396C101.591 11.6446 100.97 13.1198 101.496 14.4114L158.588 154.626C159.435 156.706 162.372 156.728 163.249 154.661L222.43 15.3143Z" fill="url(#paint0_linear_406_5948)" stroke="#D9A600" stroke-width="1.0097" mask="url(#path-1-inside-1_406_5948)"/>
<defs>
<linearGradient id="paint0_linear_406_5948" x1="272.749" y1="-158.991" x2="27.4361" y2="14.8714" gradientUnits="userSpaceOnUse">
<stop stop-color="#009F42"/>
<stop offset="0.5" stop-color="#00D95B"/>
<stop offset="1" stop-color="#009F42"/>
</linearGradient>
</defs>
</svg>
