<svg width="321" height="321" viewBox="0 0 321 321" fill="none" xmlns="http://www.w3.org/2000/svg">
<mask id="path-1-inside-1_406_5938" fill="white">
<path d="M222.538 15.5961C223.083 14.3126 222.486 12.8289 221.194 12.3048C202.457 4.70221 182.439 0.718322 162.2 0.572605C141.961 0.426889 121.884 4.1221 103.031 11.4541C101.732 11.9595 101.111 13.4344 101.636 14.7256L158.674 154.962C159.52 157.042 162.458 157.063 163.336 154.996L222.538 15.5961Z"/>
</mask>
<path d="M222.538 15.5961C223.083 14.3126 222.486 12.8289 221.194 12.3048C202.457 4.70221 182.439 0.718322 162.2 0.572605C141.961 0.426889 121.884 4.1221 103.031 11.4541C101.732 11.9595 101.111 13.4344 101.636 14.7256L158.674 154.962C159.52 157.042 162.458 157.063 163.336 154.996L222.538 15.5961Z" fill="url(#paint0_linear_406_5938)" stroke="#D9A600" stroke-width="1.0097" mask="url(#path-1-inside-1_406_5938)"/>
<defs>
<linearGradient id="paint0_linear_406_5938" x1="243.855" y1="36.1575" x2="242.392" y2="132.335" gradientUnits="userSpaceOnUse">
<stop stop-color="#D90101"/>
<stop offset="0.5" stop-color="#FF4D4D"/>
<stop offset="1" stop-color="#D90101"/>
</linearGradient>
</defs>
</svg>
